<svg fill="#FA5252" xmlns="http://www.w3.org/2000/svg"  viewBox="0 0 24 24" width="24px" height="24px"><path d="M 12 1 C 5.936709 1 1 5.9367135 1 12 C 1 18.063287 5.936709 23 12 23 C 18.063291 23 23 18.063287 23 12 C 23 5.9367135 18.063291 1 12 1 z M 11 3.0585938 L 11 6 L 13 6 L 13 3.0585938 C 14.738814 3.2498154 16.325086 3.9327024 17.619141 4.9667969 L 15.533203 7.0527344 L 16.947266 8.4667969 L 19.033203 6.3808594 C 20.067297 7.6749142 20.750185 9.2611865 20.941406 11 L 18 11 L 18 13 L 20.941406 13 C 20.445601 17.508451 16.643816 21 12 21 C 7.3561832 21 3.554399 17.508451 3.0585938 13 L 6 13 L 6 11 L 3.0585938 11 C 3.2498153 9.2611865 3.9327027 7.6749142 4.9667969 6.3808594 L 7.0527344 8.4667969 L 8.4667969 7.0527344 L 6.3808594 4.9667969 C 7.674914 3.9327024 9.2611856 3.2498154 11 3.0585938 z M 8.4472656 9.1054688 L 7.5527344 10.894531 L 10.005859 12.121094 A 2 2 0 0 0 12 14 A 2 2 0 0 0 12 10 A 2 2 0 0 0 10.900391 10.332031 L 8.4472656 9.1054688 z"/></svg>